PathFileType	4	(X/Y/Z)	E:\Qualisys_Data\Carbon_Farble_Plate\Data\Amateur_Runner\S1\T2\S1T2V13_c3d.trc
DataRate	CameraRate	NumFrames	NumMarkers	Units	OrigDataRate	OrigDataStartFrame	OrigNumFrames
200.000000	200.000000	4	39	mm	200.000000	268	307
Frame#	Time	LSHO			RSHO			LICST			RICST			LASIS			LHEEL			RASIS			LTROC			RTROC			SACR			LTH1			LSK4			LTH2			LTH3			RHM5			LSK2			LTH4			RTH1			LTOE			RTH2			RTH3			RTH4			LLEP			RLEP			LSK1			LSK3			RSK1			LHM5			RSK2			LFT1			RSK3			RSK4			LLME			RLME			RTOE			RHEEL			RFT1			RFT2			LFT2			
		X1	Y1	Z1	X2	Y2	Z2	X3	Y3	Z3	X4	Y4	Z4	X5	Y5	Z5	X6	Y6	Z6	X7	Y7	Z7	X8	Y8	Z8	X9	Y9	Z9	X10	Y10	Z10	X11	Y11	Z11	X12	Y12	Z12	X13	Y13	Z13	X14	Y14	Z14	X15	Y15	Z15	X16	Y16	Z16	X17	Y17	Z17	X18	Y18	Z18	X19	Y19	Z19	X20	Y20	Z20	X21	Y21	Z21	X22	Y22	Z22	X23	Y23	Z23	X24	Y24	Z24	X25	Y25	Z25	X26	Y26	Z26	X27	Y27	Z27	X28	Y28	Z28	X29	Y29	Z29	X30	Y30	Z30	X31	Y31	Z31	X32	Y32	Z32	X33	Y33	Z33	X34	Y34	Z34	X35	Y35	Z35	X36	Y36	Z36	X37	Y37	Z37	X38	Y38	Z38	X39	Y39	Z39	

269	1.34	2265.329833984375	1476.821166992188	-596.9812622070312	2201.756591796875	1493.80859375	-274.0068664550781	2192.255126953125	1019.602478027344	-557.1551513671875	2194.45166015625	1044.778686523438	-257.6512145996094	2237.32373046875	979.3557739257812	-531.7613525390625	1773.792602539062	146.0037078857422	-418.1746826171875	2232.15625	996.4361572265624	-267.1788635253906	2114.224853515625	906.9750366210938	-569.58740234375	2137.3505859375	904.375244140625	-229.8899078369141	2074.771240234375	1051.532104492188	-403.2526245117188	2213.931396484375	738.2841186523438	-534.2528686523438	1878.496459960938	289.6395263671875	-460.9635314941406	2134.767578125	744.5802612304688	-566.1431274414062	2194.363525390625	638.0570068359375	-512.5773315429688	2240.727783203125	138.0757904052734	-246.2429504394531	1938.427124023438	362.2201232910156	-503.560302734375	2112.52978515625	650.1806640625	-537.0033569335938	2308.5478515625	841.3592529296875	-255.6613006591797	2007.053466796875	51.07578659057617	-427.0741882324219	2247.009521484375	798.39453125	-225.003662109375	2365.962890625	756.7987670898438	-257.5714721679688	2298.8349609375	713.327880859375	-237.1192016601562	2108.02978515625	497.2868041992188	-492.88671875	2400.73974609375	582.504150390625	-276.2297973632812	2006.130004882812	311.9293823242188	-488.25537109375	1935.853515625	235.5005645751953	-478.8265686035156	2307.743408203125	423.0707092285156	-258.9544677734375	1933.224609375	48.40204238891602	-495.1316223144531	2242.027099609375	467.8395080566406	-275.990966796875	1774.734375	116.1764373779297	-392.8643493652344	2253.937744140625	338.5491027832031	-270.8106994628906	2190.066650390625	382.8005981445312	-296.9024963378906	1840.567138671875	161.0339050292969	-470.8529052734375	2154.122802734375	250.4320526123047	-273.6066284179688	2308.743896484375	127.0040817260742	-315.4252624511719	2081.3798828125	239.4304656982422	-321.1527099609375	2081.92919921875	204.1951751708984	-349.2681579589844	2071.42626953125	211.7118682861328	-296.1338195800781	1766.705200195312	114.9283142089844	-445.2727355957031
270	1.345	2283.55029296875	1481.858764648438	-596.3173828125	2217.065673828125	1497.642456054688	-274.0911865234375	2210.23828125	1023.354553222656	-557.40673828125	2212.42578125	1049.634399414062	-257.8861694335938	2257.791015625	983.5037841796876	-532.9061279296875	1779.430541992188	153.2683715820312	-417.8262939453125	2250.03271484375	1001.15185546875	-267.3685913085938	2131.6552734375	910.7581176757812	-569.1319580078125	2155.794921875	909.3351440429688	-229.6620635986328	2092.91748046875	1055.225341796875	-403.4968872070312	2227.62255859375	740.9759521484375	-534.0545043945312	1885.288696289062	296.179443359375	-461.8600463867188	2148.705322265625	748.9441528320312	-566.203369140625	2205.72314453125	640.916015625	-512.2218627929688	2277.421142578125	134.4846496582031	-247.2234039306641	1945.8662109375	368.3702697753906	-504.6129760742188	2124.568359375	655.225341796875	-536.0735473632812	2327.35009765625	846.5438232421875	-257.0446472167969	2008.589599609375	51.34431838989258	-427.9985961914062	2265.732421875	803.9346313476562	-224.77001953125	2384.49951171875	762.0592651367188	-259.1036376953125	2317.83154296875	718.5987548828125	-237.5898132324219	2116.87060546875	502.4844055175781	-492.5040283203125	2419.095947265625	586.8609008789062	-276.8597717285156	2010.50830078125	316.3893737792969	-489.524658203125	1942.190063476562	241.9046630859375	-481.0881958007812	2331.890625	422.5175170898438	-259.9609069824219	1934.40283203125	48.95760345458984	-495.5364990234375	2263.674560546875	464.9142761230469	-276.4288024902344	1778.196533203125	122.6979751586914	-393.4473266601562	2282.039306640625	335.9603881835938	-272.751953125	2216.22607421875	377.4379577636719	-297.0567016601562	1846.108032226562	166.4710083007812	-472.1730651855469	2186.25634765625	242.8813934326172	-274.4643859863281	2345.9775390625	126.7209548950195	-316.223388671875	2113.779052734375	229.0902709960938	-321.4690856933594	2116.366455078125	193.9959564208984	-350.8465881347656	2105.244140625	200.7342529296875	-297.1150207519531	1770.385498046875	121.1460952758789	-445.8584594726562
271	1.35	2301.154052734375	1486.566162109375	-595.3468017578125	2232.44287109375	1501.707275390625	-274.0674133300781	2227.47802734375	1026.19677734375	-556.738037109375	2230.185791015625	1053.869995117188	-258.1344909667969	2276.733642578125	986.511962890625	-532.5713500976562	1785.311645507812	160.5096588134766	-418.9058227539062	2268.037353515625	1005.930419921875	-267.7628479003906	2149.027099609375	914.5427856445312	-568.7886352539062	2174.10009765625	914.419677734375	-229.3197937011719	2111.31494140625	1059.510375976562	-403.7183227539062	2241.67626953125	743.6742553710938	-533.994384765625	1892.428955078125	302.641845703125	-463.2334289550781	2162.860595703125	753.3490600585938	-565.926025390625	2217.268798828125	644.5250244140625	-512.35498046875	2314.277587890625	131.0452117919922	-248.3374786376953	1952.824951171875	375.1008605957031	-505.5913696289062	2136.4296875	660.0776977539062	-536.00146484375	2345.919921875	851.2959594726562	-258.5010986328125	2010.149291992188	51.4866943359375	-428.9964294433594	2285.03515625	808.28515625	-225.8760986328125	2403.34765625	766.6880493164062	-260.3176574707031	2336.619140625	723.450439453125	-238.1053619384766	2125.72802734375	507.6203002929688	-492.8847351074219	2436.70751953125	590.7035522460938	-277.9111938476562	2017.486572265625	322.918701171875	-491.3908996582031	1949.07666015625	248.5763397216797	-482.8270874023438	2355.734619140625	421.8499145507812	-260.4472045898438	1935.939697265625	49.9656982421875	-495.9890747070312	2285.78564453125	461.1557922363281	-276.9019775390625	1782.508544921875	130.0068817138672	-394.4552001953125	2309.666015625	333.5596008300781	-272.7754211425781	2242.46435546875	372.0492858886719	-297.9704895019531	1852.114868164062	172.9622497558594	-473.3204650878906	2218.65185546875	235.6025085449219	-274.96875	2383.200439453125	126.3716201782227	-317.5492248535156	2146.800537109375	218.9979553222656	-322.8997497558594	2150.740234375	184.1269836425781	-351.8679504394531	2139.403564453125	190.0072174072266	-298.017578125	1774.881103515625	128.2154541015625	-446.6566467285156
272	1.355	2318.480224609375	1491.748901367188	-594.2778930664062	2247.818603515625	1505.151733398438	-273.9984130859375	2247.790283203125	1029.302856445312	-556.4163818359375	2248.6806640625	1058.607543945312	-258.4088745117188	2290.361572265625	988.5574340820312	-530.4656982421875	1792.17529296875	168.2562408447266	-419.5507202148438	2285.72314453125	1010.512329101562	-268.1562805175781	2166.58154296875	918.6944580078124	-568.4078369140625	2192.2294921875	918.887451171875	-228.9107666015625	2129.46484375	1063.319458007812	-403.9324645996094	2255.54248046875	746.1026611328125	-533.7244873046875	1900.093872070312	309.167236328125	-464.1483154296875	2177.34423828125	757.9927368164062	-565.5839233398438	2229.319580078125	648.4486694335938	-512.612060546875	2351.038818359375	127.8962860107422	-249.425537109375	1960.472900390625	381.7684326171875	-506.4691162109375	2148.7158203125	665.355224609375	-536.001220703125	2364.36669921875	856.01904296875	-259.3190002441406	2011.699829101562	51.06637191772461	-428.9806518554688	2303.7314453125	813.6821899414062	-226.3847503662109	2421.799560546875	771.1372680664062	-261.6713562011719	2355.26025390625	728.345947265625	-238.2611236572266	2135.032958984375	512.7803344726562	-493.2532958984375	2454.298095703125	594.4570922851562	-278.4963684082031	2025.027465820312	329.1867065429688	-492.8574523925781	1956.678100585938	255.0859375	-484.5885925292969	2379.667724609375	421.6155700683594	-260.8945922851562	1937.73193359375	51.2338752746582	-496.40087890625	2307.814453125	457.6387634277344	-277.4940185546875	1788.819213867188	138.1571807861328	-395.0465698242188	2337.43359375	330.5419921875	-273.9885559082031	2268.4287109375	366.5691528320312	-298.17822265625	1858.763427734375	179.3651428222656	-474.5408935546875	2250.70361328125	228.5207977294922	-275.5825500488281	2418.946044921875	126.2235565185547	-318.0162048339844	2179.7626953125	208.6595764160156	-323.5954895019531	2185.5322265625	173.9409332275391	-352.473876953125	2173.590576171875	179.4875183105469	-298.7372131347656	1780.617309570312	136.1923522949219	-447.4079895019531
